Patient4_TMGait_0pt3_01_right_10_EMG.mot
version=1
nRows=16
nColumns=33
inDegrees=no
endheader
time	1LAddLong	2LGlutMax	3LGlutMed	4LIliopsoas	5LSemiMemb	6LBicFemLong	7LRecFem	8LVastMed	9LVastLat	10LGasMed	11LTibAnt	12lTibPost	13LPeroneusLong	14LSol	15LExtDigLong	16LFlexDigLong	17RAddLong	18RGlutMax	19RGlutMed	20RIliopsoas	21RSemiMemb	22RBicFemLong	23RRecFem	24RVastMed	25RVastLat	26RGasMed	27RTibAnt	28RTibPost	29RPeroneusLong	30RSol	31RExtDigLong	32RFlexDigLong
18.117	0.052948	-0.080109	0.095978	0.010071	0.027924	-0.074463	-0.016022	-0.00061	-0.019073	0.001068	0.000305	0.014343	-0.011597	-0.11673	-0.039368	0.016785	-0.020142	-0.20706	0.28351	0.052643	-0.026398	0.11124	0.18875	-0.233	-0.21561	-0.002441	0.39688	-0.001221	0.025787	-0.085144	-0.009766	-0.001831
18.118	-0.024567	-0.06546	0.088806	0.004272	0.033264	-0.018311	-0.035706	-0.001068	-0.000153	0.00412	-0.084534	0.005035	0.022125	-0.074921	-0.014954	0.005798	-0.018311	-0.30655	0.18005	-0.078735	0.087585	0.054016	0.000153	-0.18402	-0.13199	-0.001984	0.32196	-0.002136	0.082245	-0.19134	-0.007477	0.001526
18.119	0.005951	-0.01297	0.084839	0.005646	0.037231	-0.010986	-0.021515	-0.004272	0.005951	0.018158	0.082092	0.005646	-0.049896	-0.052795	0.022278	0.00351	-0.00061	-0.37918	0.2153	-0.12177	0.081635	0.014191	-0.33722	-0.26718	-0.063477	0.003204	-0.75638	0.005798	0.10361	-0.27618	-0.008545	0.006714
18.12	0.010376	0.015259	0.10208	-0.000458	0.033417	0.019379	-0.03418	-0.00351	0.003662	0.034027	0.15686	0.017395	-0.096588	-0.052338	0.08728	-0.000305	-0.019836	-0.50552	-0.13138	-0.004883	0.037689	-0.020142	-0.45761	0.070038	0.16892	0.003967	-0.74616	-0.002136	-0.006561	-0.32013	-0.006714	0.001526
18.121	0.007782	0.052948	0.099945	0.006256	0.026093	0.049591	-0.011292	-0.005188	-0.011902	0.030975	0.14771	0.014038	-0.052338	0.020752	0.12344	-0.000916	-0.02533	-0.48843	-0.42969	0.097351	0.072632	-0.062561	-0.17731	0.47562	0.28305	-0.00351	-0.7135	-0.005646	-0.090942	-0.2121	-0.005188	0.00946
18.122	0.007629	0.06546	0.1059	0.004883	0.018158	0.037079	-0.018616	0.006561	-0.016174	0.001221	0.12955	0.002594	0.048828	0.044403	0.35492	0.014038	0.003357	-0.56335	-0.8989	0.19806	0.065613	0.033875	0.061188	0.60806	0.16678	0.000916	-0.32562	-0.002747	0.11047	-0.12833	-0.009308	0.010529
18.123	0.006256	0.087738	0.093231	0.026245	0.025024	0.026093	-0.021057	-0.003815	-0.007324	-0.025787	0.15045	0.011292	0.050354	0.073395	0.85556	-0.003815	0.026398	-0.6427	-0.82535	0.28107	0.10147	-0.011292	-0.097961	0.89554	0.033112	0.000305	0.59174	-0.003052	0.29297	-0.055237	-0.006409	0.010529
18.124	0.001068	0.11566	0.097961	0.0177	0.014038	0.012207	-0.018921	-0.002594	-0.007629	-0.01709	0.21454	0.011749	-0.020599	0.11307	-0.30991	-0.002594	0.015717	-0.67291	-0.1239	0.076752	0.15213	-0.11566	-0.13748	0.91568	0.030518	-0.007172	0.15091	-0.00473	0.13214	0.082703	-0.00824	0.020752
18.125	0.000916	0.12589	0.13031	0.003815	0.015564	0.041046	-0.027771	-0.003815	0.002594	0.004425	-0.26382	0.014648	-0.047913	0.103	-0.13458	-0.009766	0.010223	-0.79315	0.068665	0.033569	0.22644	-0.09552	0.1796	0.69244	0.04837	-0.015564	-0.23895	-0.002441	0.035858	0.22385	-0.006256	0.007935
18.126	-0.004578	0.13153	0.14358	-0.011749	0.018158	0.052795	-0.032196	-0.005951	0.007935	0.015259	-0.29511	0.006866	-0.038452	0.10849	-0.21957	-0.018616	0.007629	-0.89264	-0.29068	0.021362	0.074005	-0.056	0.37796	0.35141	0.059052	-0.013885	-0.15884	0.000153	0.089417	0.05722	-0.015411	0.012207
18.127	0.00351	0.15549	0.11917	-0.022278	0.038605	0.039063	-0.046082	-0.003815	0.02121	0.001221	0.010986	0.006104	-0.013428	0.080872	0.084076	-0.018311	-0.028839	-0.91568	-0.2562	0.097961	-0.20279	-0.090332	0.19394	0.12009	-0.032806	-0.015717	-0.20706	-0.000153	0.11124	-0.18417	-0.00824	0.01297
18.128	0.004425	0.18112	0.13229	0.017548	0.036774	0.047607	-0.048828	-0.009613	0.022888	-0.00946	0.29144	0.024261	-0.085449	0.023193	-0.31815	-0.022736	-0.025024	-0.91507	0.19073	0.042267	-0.30823	-0.091248	-0.14221	-0.33539	-0.052338	-0.023956	-0.14999	-0.006256	0.063934	-0.26688	-0.008545	0.006256
18.129	0.006409	0.15686	0.11673	0.006409	0.021515	0.018463	-0.03418	-0.005798	0.026855	0.00351	0.30853	0.019379	-0.11704	0.0177	0.079956	-0.02655	-0.027161	-0.92163	0.32379	0	-0.21393	-0.13138	-0.55054	-0.46005	0.099182	-0.015259	-0.014954	0.002594	0.008698	-0.20248	-0.019379	0.006561
18.13	-0.000153	0.1738	0.1294	0.025024	0.011444	0.003662	-0.044098	-0.006409	0.036774	0.002899	-0.010681	0.0177	-0.091553	0.039825	0.010529	-0.021667	-0.00946	-1.1182	0.059967	0.000458	-0.094757	-0.098419	-0.53543	-0.26428	0.27588	-0.004425	-0.072784	-0.004578	0.11917	-0.065308	-0.010071	0.014343
18.131	0.001984	0.20325	0.15182	0.005188	0.011749	-0.015869	-0.053558	-0.008545	0.049744	0.003052	-0.33554	0.029907	0.003662	0.14282	-0.05188	-0.034485	0.008087	-1.2605	-0.076904	-0.065613	-0.02243	0.030212	-0.30884	-0.11719	0.26291	-0.012817	-0.43228	-0.006714	0.20645	0.19852	-0.007477	0.016632
18.132	0.003357	0.22675	0.097961	0.014648	0.002747	-0.043335	-0.044403	-0.00885	0.052643	-0.001831	-0.34759	0.007477	0.055542	0.17029	0.43106	-0.024567	0.010986	-1.3579	0.56961	-0.045166	0.029144	0.12466	-0.014343	-0.20172	0.14557	0.019073	-0.48431	-0.016479	0.23224	0.31021	-0.004578	0.012207
